<svg width="24" height="24" viewBox="0 0 24 24" fill="none" xmlns="http://www.w3.org/2000/svg">
<circle cx="12" cy="12" r="12" fill="#E5E6EA"/>
<path fill-rule="evenodd" clip-rule="evenodd" d="M16.9497 8.46455C17.3403 8.07402 17.3403 7.44086 16.9497 7.05033C16.5592 6.65981 15.9261 6.65981 15.5355 7.05033L12 10.5859L8.46447 7.05033C8.07394 6.65981 7.44078 6.65981 7.05025 7.05033C6.65973 7.44086 6.65973 8.07402 7.05025 8.46455L10.5858 12.0001L7.05025 15.5356C6.65973 15.9261 6.65973 16.5593 7.05025 16.9498C7.44078 17.3404 8.07394 17.3404 8.46447 16.9498L12 13.4143L15.5355 16.9498C15.9261 17.3404 16.5592 17.3404 16.9497 16.9498C17.3403 16.5593 17.3403 15.9261 16.9497 15.5356L13.4142 12.0001L16.9497 8.46455Z" fill="#8C8F98"/>
</svg>
